# 3ds Max Wavefront OBJ Exporter v0.97b - (c)2007 guruware
# File Created: 16.05.2012 13:55:25

mtllib box.mtl

#
# object Box001
#

v  -0.7142 0.0000 -1.2728
v  1.3067 0.0000 -1.2728
v  1.3067 0.0000 1.2380
v  -0.7142 0.0000 1.2380
v  1.3067 26.3247 1.2380
v  1.3067 26.3247 -1.2728
v  -0.7142 26.3247 -1.2728
v  -0.7142 26.3247 1.2380
# 8 vertices

vn 0.0000 -1.0000 -0.0000
vn 0.0000 1.0000 -0.0000
vn 0.0000 0.0000 1.0000
vn 1.0000 0.0000 -0.0000
vn 0.0000 0.0000 -1.0000
vn -1.0000 0.0000 -0.0000
# 6 vertex normals

vt 1.0000 1.0000 0.0000
vt 0.0000 1.0000 0.0000
vt 0.0000 0.0000 0.0000
vt 1.0000 0.0000 0.0000
# 4 texture coords

g Box001
usemtl wire_153228214
s 2
f 1/1/1 2/2/1 3/3/1 4/4/1 
s 4
f 5/4/2 6/1/2 7/2/2 8/3/2 
s 8
f 3/4/3 5/1/3 8/2/3 4/3/3 
s 16
f 2/4/4 6/1/4 5/2/4 3/3/4 
s 32
f 1/4/5 7/1/5 6/2/5 2/3/5 
s 64
f 4/4/6 8/1/6 7/2/6 1/3/6 
# 6 polygons

