####
#
# OBJ File Generated by Meshlab
#
####
# Object sphere.obj
#
# Vertices: 26
# Faces: 48
#
####
vn 0.000000 0.000000 1.000000
v 0.000000 0.000000 0.100000
vn 0.000000 0.000000 -1.000000
v 0.000000 0.000000 -0.100000
vn 0.654148 0.139455 0.743399
v 0.058779 0.000000 0.080902
vn 0.956256 0.053936 0.287517
v 0.095106 0.000000 0.030902
vn 0.956256 -0.053936 -0.287517
v 0.095106 0.000000 -0.030902
vn 0.654148 -0.139455 -0.743399
v 0.058779 0.000000 -0.080902
vn 0.206303 0.636238 0.743397
v 0.029389 0.050904 0.080902
vn 0.431416 0.855111 0.287516
v 0.047553 0.082364 0.030902
vn 0.524838 0.801174 -0.287516
v 0.047553 0.082364 -0.030902
vn 0.447847 0.496782 -0.743398
v 0.029389 0.050904 -0.080902
vn -0.447847 0.496782 0.743398
v -0.029389 0.050904 0.080902
vn -0.524838 0.801174 0.287516
v -0.047553 0.082364 0.030902
vn -0.431416 0.855111 -0.287516
v -0.047553 0.082364 -0.030902
vn -0.206303 0.636238 -0.743397
v -0.029389 0.050904 -0.080902
vn -0.654148 -0.139455 0.743399
v -0.058779 -0.000000 0.080902
vn -0.956256 -0.053936 0.287517
v -0.095106 -0.000000 0.030902
vn -0.956256 0.053936 -0.287517
v -0.095106 -0.000000 -0.030902
vn -0.654148 0.139455 -0.743399
v -0.058779 -0.000000 -0.080902
vn -0.206303 -0.636238 0.743397
v -0.029389 -0.050904 0.080902
vn -0.431416 -0.855111 0.287516
v -0.047553 -0.082364 0.030902
vn -0.524838 -0.801174 -0.287516
v -0.047553 -0.082364 -0.030902
vn -0.447847 -0.496782 -0.743398
v -0.029389 -0.050904 -0.080902
vn 0.447847 -0.496782 0.743398
v 0.029389 -0.050904 0.080902
vn 0.524838 -0.801174 0.287516
v 0.047553 -0.082364 0.030902
vn 0.431416 -0.855111 -0.287516
v 0.047553 -0.082364 -0.030902
vn 0.206303 -0.636238 -0.743397
v 0.029389 -0.050904 -0.080902
# 26 vertices, 0 vertices normals

f 3//3 7//7 1//1
f 7//7 11//11 1//1
f 11//11 15//15 1//1
f 15//15 19//19 1//1
f 19//19 23//23 1//1
f 23//23 3//3 1//1
f 6//6 2//2 10//10
f 10//10 2//2 14//14
f 14//14 2//2 18//18
f 18//18 2//2 22//22
f 22//22 2//2 26//26
f 26//26 2//2 6//6
f 3//3 4//4 8//8
f 3//3 8//8 7//7
f 4//4 5//5 9//9
f 4//4 9//9 8//8
f 5//5 6//6 10//10
f 5//5 10//10 9//9
f 7//7 8//8 12//12
f 7//7 12//12 11//11
f 8//8 9//9 13//13
f 8//8 13//13 12//12
f 9//9 10//10 14//14
f 9//9 14//14 13//13
f 11//11 12//12 16//16
f 11//11 16//16 15//15
f 12//12 13//13 17//17
f 12//12 17//17 16//16
f 13//13 14//14 18//18
f 13//13 18//18 17//17
f 15//15 16//16 20//20
f 15//15 20//20 19//19
f 16//16 17//17 21//21
f 16//16 21//21 20//20
f 17//17 18//18 22//22
f 17//17 22//22 21//21
f 19//19 20//20 24//24
f 19//19 24//24 23//23
f 20//20 21//21 25//25
f 20//20 25//25 24//24
f 21//21 22//22 26//26
f 21//21 26//26 25//25
f 23//23 24//24 4//4
f 23//23 4//4 3//3
f 24//24 25//25 5//5
f 24//24 5//5 4//4
f 25//25 26//26 6//6
f 25//25 6//6 5//5
# 48 faces, 0 coords texture

# End of File